<svg xmlns="http://www.w3.org/2000/svg"  viewBox="0 0 64 64" width="512px" height="512px"><path fill="#65a844" d="M63,32c0,17.1-13.9,31-31,31S1,49.1,1,32S14.9,1,32,1S63,14.9,63,32"/><polygon fill="#c4b9b7" points="47.02,15.5 41.2,41.5 31.47,41.5 34.07,30.5 31.88,30.5 30.48,35.5 23.64,35.5 25.04,30.5 22.88,30.5 19.67,41.5 10.62,41.5 18.73,15.5 27.47,15.5 26.27,19.5 28.96,19.5 27.56,24.5 32.63,24.5 34.1,19.5 36.85,19.5 37.92,15.5"/><polygon fill="#828180" points="17.64,19 17.33,20 26.12,20 26.42,19"/><path fill="#828180" d="M45.12,24h-3.88c-0.13,0-0.2-0.07-0.24-0.12c-0.03-0.04-0.08-0.13-0.05-0.25l0.02-0.1l0.78-3.03	c0.09-0.36,0.01-0.74-0.22-1.04C41.3,19.17,40.96,19,40.59,19H37l-0.02,0.02L36.715,20h3.875c0.08,0,0.13,0.05,0.15,0.08	c0.03,0.03,0.06,0.09,0.04,0.17l-0.86,3.37C39.86,23.84,39.66,24,39.43,24h-6.65l-0.3,1h12.41L45.12,24z"/><path fill="#828180" d="M16.52,34.35l-0.76,2.39c-0.02,0.08,0.01,0.15,0.03,0.18c0.03,0.03,0.08,0.08,0.16,0.08h5.03l-0.29,1	h-4.74c-0.38,0-0.73-0.18-0.96-0.49s-0.3-0.7-0.18-1.07l0.75-2.39l0.55-1.74l0.33-1.05c0.02-0.08-0.01-0.15-0.03-0.18	C16.38,31.05,16.33,31,16.25,31H13.9l0.31-1h2.04c0.38,0,0.73,0.18,0.96,0.49c0.23,0.31,0.3,0.7,0.18,1.07l-0.33,1.05	c-0.04,0.12,0.01,0.22,0.05,0.26c0.03,0.05,0.11,0.13,0.24,0.13h4.8l-0.29,1h-4.87C16.77,34,16.58,34.14,16.52,34.35z"/><path fill="#231f20" d="M47.8,14H37.3l-1.2,5h-2.9l-0.5,1.9L27.8,14H17.6L9,41l8.9,9h10.2l1.5-6.2l1.1,1.2h2.6l4.1,5h10.5	L53,25L47.8,14z M40.8,41h-8.7l2.6-11h-3.2l-1.4,5h-5.8l1.4-5h-3.2l-3.2,11h-8l7.8-25h7.7l-1.2,4h2.7l-1.4,5H33l1.471-5h2.763	l1.067-4h8.1L40.8,41z"/><path fill="#5c5b5a" d="M25.8,48l-6.5-7h-8l6.9,7H25.8z M45.8,48l-5-7h-8.7l5.7,7H45.8z M30,41L30,41l1.1-4.7l-1-1.3h-5.8	l6.8,8h0.6L30,41z"/></svg>