<svg xmlns="http://www.w3.org/2000/svg" viewBox="0 -0.5 16 16" shape-rendering="crispEdges">
<metadata>Made with Pixels to Svg https://codepen.io/shshaw/pen/XbxvNj</metadata>
<path stroke="#825d16" d="M7 1h3M6 2h1M10 2h1M11 3h1" />
<path stroke="#fdff76" d="M7 2h1" />
<path stroke="#eaee57" d="M8 2h2M10 3h1M11 5h1" />
<path stroke="#3f2e0e" d="M7 3h2M9 4h1M13 5h1M11 6h2" />
<path stroke="#e9b115" d="M9 3h1M10 4h2M12 5h1" />
<path stroke="#493615" d="M12 3h1M10 5h1M9 6h1M8 7h1M7 8h1M6 9h1M5 10h1M4 11h1M3 12h1M2 13h1" />
<path stroke="#684e1e" d="M13 3h1M10 6h1M8 8h1M6 10h1M4 12h1" />
<path stroke="#896727" d="M12 4h1M9 7h1M7 9h1M5 11h1M3 13h1" />
<path stroke="#281e0b" d="M13 4h1M10 7h1M9 8h1M8 9h1M7 10h1M6 11h1M5 12h1M4 13h1M2 14h2" />
</svg>